<?xml version="1.0" encoding="UTF-8"?>
<!DOCTYPE svg PUBLIC "-//W3C//DTD SVG 1.1//EN" "http://www.w3.org/Graphics/SVG/1.1/DTD/svg11.dtd">
<!-- Creator: CorelDRAW X7 -->
<svg xmlns="http://www.w3.org/2000/svg" xml:space="preserve" width="2.83333in" height="0.499992in" version="1.1" style="shape-rendering:geometricPrecision; text-rendering:geometricPrecision; image-rendering:optimizeQuality; fill-rule:evenodd; clip-rule:evenodd"
viewBox="0 0 2833 500"
 xmlns:xlink="http://www.w3.org/1999/xlink">
 <defs>
  <style type="text/css">
   <![CDATA[
    .fil0 {fill:#BC19BE}
    .fil3 {fill:#606062;fill-rule:nonzero}
    .fil2 {fill:#BD19BF;fill-rule:nonzero}
    .fil1 {fill:url(#id0)}
   ]]>
  </style>
  <linearGradient id="id0" gradientUnits="userSpaceOnUse" x1="44.9921" y1="350.472" x2="366.193" y2="350.472">
   <stop offset="0" style="stop-opacity:1; stop-color:#1891FC"/>
   <stop offset="0.34902" style="stop-opacity:1; stop-color:#32149E"/>
   <stop offset="0.709804" style="stop-opacity:1; stop-color:#A30D49"/>
   <stop offset="1" style="stop-opacity:1; stop-color:#D815DB"/>
  </linearGradient>
 </defs>
 <g id="Layer_x0020_1">
  <metadata id="CorelCorpID_0Corel-Layer"/>
  <g id="_318570773968">
   <path class="fil0" d="M71 177c9,-2 16,5 17,12 2,9 -4,16 -12,17 -8,2 -15,-5 -17,-12 -2,-9 5,-16 12,-17zm179 -146l4 0c4,0 8,0 11,1 24,3 41,13 58,27 3,3 6,5 8,8 2,1 3,3 5,4l6 7c7,9 13,20 18,30 1,3 2,7 3,10 2,6 3,13 4,20 1,3 1,7 1,11 0,2 0,4 0,6 0,17 -8,37 -17,50 -2,4 -20,26 -25,31l-5 6c-1,1 -1,1 -2,2l-3 3c0,1 0,1 -1,2 -1,1 -2,2 -3,3l-7 8c-4,3 -7,7 -10,11l-17 17c-2,3 -6,6 -7,8 0,0 1,1 2,2 2,2 5,4 7,6 1,1 2,2 2,2 1,1 2,2 3,3 1,0 1,1 2,2 4,3 10,6 8,13 -2,10 -13,10 -19,4 -1,-1 -2,-1 -3,-2l-32 -30c-3,-2 -5,-4 -7,-6 -3,-2 -5,-4 -7,-6 -1,-1 -2,-2 -3,-3 -3,-3 -8,-7 -10,-11 -5,-9 5,-19 17,-10l11 10c1,1 2,2 3,2l7 7c1,0 1,1 2,2 1,-1 4,-5 5,-6l8 -8c0,-1 1,-1 1,-2l51 -56c1,0 1,0 1,-1 2,-2 6,-6 8,-8 3,-6 7,-11 9,-17 10,-23 11,-49 1,-71 -1,-2 -2,-5 -4,-7 -4,-8 -9,-15 -16,-22 -2,-2 -5,-5 -8,-7 -2,-2 -4,-3 -6,-5 -1,0 -2,-1 -3,-2 -1,-1 -2,-1 -3,-2 -1,-1 -3,-1 -4,-2 -1,-1 -2,-1 -3,-2 -5,-2 -10,-4 -15,-6 -19,-6 -44,-7 -61,4l-14 10c-3,3 -7,7 -10,10l-7 6c0,0 0,1 -1,1l-15 15c-1,0 -1,0 -2,1l-4 4c0,0 0,1 -1,1l-16 16c-1,0 -2,1 -3,2l-22 21c-1,0 -1,0 -2,1 0,0 0,1 -1,1l-11 11c-2,2 -6,6 -8,7 2,3 4,5 5,7 11,22 -2,47 -26,50 -6,0 -9,0 -15,-2 -3,-1 -8,-4 -11,-6 -3,-3 -5,-6 -7,-10 -2,-4 -4,-9 -4,-14 0,-19 16,-36 36,-35 3,0 4,-3 7,-5l25 -24c1,-1 2,-2 3,-3l18 -16c0,-1 1,-1 1,-2 1,-1 2,-1 3,-3l35 -32c1,-1 2,-2 3,-3 2,-2 4,-4 6,-6 1,-1 2,-2 4,-3l9 -9c6,-5 16,-10 23,-13 12,-5 25,-8 37,-8z"/>
   <path class="fil1" d="M72 287c9,-2 16,4 18,11 2,9 -5,16 -12,17 -18,4 -25,-24 -6,-28zm16 -17c-10,-3 -18,-4 -28,1 -16,9 -23,28 -15,45 3,6 10,14 18,16 1,1 5,2 7,2 4,1 7,1 10,0 5,-1 4,-1 7,3l78 77c13,13 28,23 44,29 31,13 65,10 94,-5 8,-3 19,-11 25,-16 4,-3 8,-7 11,-10l5 -6c11,-13 20,-32 23,-49 5,-24 2,-49 -9,-70 -2,-4 -4,-9 -7,-13 -3,-5 -8,-12 -11,-15 -1,-2 -7,-8 -7,-9 -2,0 -16,14 -16,15l8 9c15,19 23,38 23,63 0,14 -4,29 -11,41 -2,4 -4,7 -7,10 0,1 -1,2 -1,3 -1,0 -2,1 -2,2 -14,17 -38,31 -60,36 -26,5 -50,0 -68,-14 -9,-5 -12,-9 -19,-16 -3,-3 -5,-6 -9,-9 -5,-5 -11,-11 -17,-17l-52 -51c1,-2 1,-2 2,-3 3,-5 6,-14 5,-20l-1 -7 -2 -5c-2,-3 -3,-6 -6,-9 -3,-3 -8,-7 -12,-8l0 0z"/>
   <path class="fil0" d="M217 146c0,5 1,9 3,12 1,3 4,7 6,9 3,4 11,9 19,9 8,0 13,-1 19,-6 2,-2 4,-3 6,-5 8,-10 8,-28 -2,-39 -7,-7 -13,-9 -23,-9 -6,0 -15,4 -19,9 -2,2 -5,5 -6,8 -1,3 -3,7 -3,12z"/>
   <path class="fil2" d="M490 368l-26 0 0 -231 28 0 0 82c12,-15 28,-22 46,-22 11,0 20,2 30,6 9,4 16,10 22,17 6,8 11,17 14,27 4,11 5,22 5,35 0,28 -7,51 -21,66 -14,16 -31,24 -51,24 -20,0 -35,-9 -47,-25l0 21zm0 -85c0,20 3,34 8,43 9,15 21,22 37,22 12,0 23,-5 32,-16 9,-10 13,-27 13,-48 0,-22 -4,-38 -13,-48 -8,-11 -19,-16 -31,-16 -13,0 -23,5 -32,16 -9,11 -14,26 -14,47zm143 1c0,-31 9,-54 26,-69 15,-12 32,-18 53,-18 23,0 42,7 57,22 14,15 22,36 22,63 0,21 -4,38 -10,51 -7,12 -16,22 -28,28 -13,7 -26,11 -41,11 -23,0 -42,-8 -57,-23 -15,-15 -22,-36 -22,-65zm29 0c0,22 5,38 15,48 9,11 21,16 35,16 14,0 26,-5 36,-16 9,-10 13,-27 13,-49 0,-20 -4,-36 -14,-47 -9,-11 -21,-16 -35,-16 -14,0 -26,5 -35,16 -10,11 -15,27 -15,48zm161 149l-4 -27c6,2 12,3 16,3 7,0 12,-1 16,-3 4,-2 7,-5 9,-9 2,-3 5,-10 9,-21 0,-2 1,-4 2,-7l-63 -169 30 0 35 97c5,12 9,25 12,39 4,-13 7,-25 12,-38l36 -98 28 0 -63 171c-7,18 -12,31 -16,38 -5,9 -11,16 -18,21 -6,4 -14,6 -23,6 -6,0 -12,-1 -18,-3zm163 -65l0 -231 28 0 0 132 67 -69 37 0 -64 63 71 105 -35 0 -56 -86 -20 20 0 66 -28 0zm276 -54l29 4c-4,17 -13,30 -25,39 -13,10 -29,15 -48,15 -25,0 -44,-8 -58,-23 -15,-15 -22,-36 -22,-63 0,-28 7,-50 22,-66 14,-16 33,-23 56,-23 23,0 41,7 55,23 14,15 21,36 21,64 0,2 0,4 0,7l-125 0c1,19 6,33 16,43 9,10 21,14 35,14 10,0 19,-2 26,-8 8,-5 14,-14 18,-26zm-93 -46l93 0c-1,-14 -5,-24 -10,-32 -10,-11 -21,-16 -36,-16 -13,0 -24,4 -32,13 -9,9 -14,21 -15,35zm158 165l0 -233 26 0 0 22c6,-8 13,-15 21,-19 8,-4 17,-6 28,-6 14,0 27,3 38,11 10,7 19,17 24,31 6,13 9,28 9,44 0,17 -3,32 -9,46 -6,14 -15,24 -27,32 -12,7 -24,11 -37,11 -10,0 -18,-2 -26,-6 -7,-4 -13,-9 -18,-15l0 82 -29 0zm26 -148c0,22 5,38 13,48 9,10 19,15 32,15 12,0 23,-5 32,-16 9,-10 14,-27 14,-49 0,-22 -5,-37 -14,-48 -8,-11 -19,-16 -31,-16 -12,0 -23,6 -32,17 -9,11 -14,28 -14,49zm269 29l29 4c-5,17 -13,30 -26,39 -12,10 -28,15 -47,15 -25,0 -44,-8 -59,-23 -14,-15 -21,-36 -21,-63 0,-28 7,-50 21,-66 15,-16 34,-23 57,-23 22,0 40,7 55,23 14,15 21,36 21,64 0,2 0,4 0,7l-125 0c1,19 6,33 15,43 10,10 21,14 36,14 10,0 19,-2 26,-8 8,-5 13,-14 18,-26zm-94 -46l94 0c-1,-14 -5,-24 -11,-32 -9,-11 -20,-16 -35,-16 -13,0 -24,4 -33,13 -9,9 -14,21 -15,35zm267 100l0 -21c-10,16 -26,25 -47,25 -13,0 -25,-4 -36,-11 -11,-8 -20,-18 -26,-31 -7,-13 -10,-28 -10,-46 0,-16 3,-32 9,-45 5,-14 14,-24 25,-31 11,-8 24,-11 37,-11 10,0 19,2 27,6 8,4 14,10 19,17l0 -83 29 0 0 231 -27 0zm-90 -84c0,22 5,38 14,49 9,10 20,15 32,15 13,0 23,-5 32,-15 9,-10 13,-25 13,-46 0,-23 -5,-40 -13,-51 -9,-11 -20,-16 -33,-16 -13,0 -23,5 -32,16 -8,10 -13,26 -13,48zm162 -115l0 -32 28 0 0 32 -28 0zm0 199l0 -168 28 0 0 168 -28 0zm181 -21c-10,9 -20,15 -30,19 -10,4 -21,6 -32,6 -18,0 -32,-5 -42,-14 -10,-9 -15,-20 -15,-34 0,-8 2,-16 5,-23 4,-7 9,-12 15,-16 6,-4 13,-7 21,-9 5,-2 14,-3 25,-5 23,-2 40,-5 51,-9 0,-4 0,-7 0,-8 0,-11 -3,-19 -8,-24 -7,-6 -18,-10 -32,-10 -14,0 -24,3 -30,7 -7,5 -11,13 -14,25l-28 -4c2,-12 7,-21 12,-28 6,-8 15,-13 26,-17 11,-4 23,-6 38,-6 14,0 26,1 35,5 9,3 15,7 19,12 5,6 8,12 9,20 1,5 2,13 2,26l0 38c0,26 0,43 2,50 1,7 3,14 7,20l-30 0c-3,-6 -5,-13 -6,-21zm-2 -63c-10,4 -26,8 -47,11 -11,1 -20,3 -24,5 -5,2 -9,5 -12,10 -2,3 -4,8 -4,13 0,8 3,14 9,19 6,5 14,7 25,7 11,0 21,-2 29,-7 9,-5 15,-11 19,-19 3,-7 5,-16 5,-29l0 -10zm81 84l0 -32 32 0 0 32 -32 0zm191 -61l28 4c-3,19 -11,34 -23,45 -13,10 -29,16 -47,16 -23,0 -41,-8 -55,-23 -14,-15 -21,-36 -21,-64 0,-18 3,-34 9,-48 6,-13 15,-23 28,-30 12,-7 25,-10 39,-10 18,0 34,4 45,14 12,9 19,22 22,39l-27 4c-3,-11 -7,-20 -14,-26 -7,-5 -15,-8 -24,-8 -15,0 -27,5 -35,15 -9,11 -14,27 -14,49 0,23 4,39 13,49 9,10 20,15 34,15 11,0 20,-3 28,-10 7,-7 12,-17 14,-31zm41 -23c0,-31 9,-54 26,-69 15,-12 32,-18 53,-18 23,0 42,7 57,22 14,15 22,36 22,63 0,21 -4,38 -10,51 -6,12 -16,22 -28,28 -13,7 -26,11 -41,11 -23,0 -42,-8 -57,-23 -14,-15 -22,-36 -22,-65zm30 0c0,22 4,38 14,48 9,11 21,16 35,16 14,0 26,-5 36,-16 9,-10 14,-27 14,-49 0,-20 -5,-36 -15,-47 -9,-11 -21,-16 -35,-16 -14,0 -26,5 -35,16 -10,11 -14,27 -14,48zm161 84l0 -168 26 0 0 24c5,-8 12,-15 21,-20 8,-5 18,-7 29,-7 13,0 23,2 31,7 8,6 13,13 17,22 13,-20 30,-29 52,-29 16,0 29,4 38,14 9,9 14,23 14,42l0 115 -29 0 0 -106c0,-11 -1,-19 -3,-24 -1,-5 -5,-9 -10,-12 -5,-3 -10,-5 -17,-5 -11,0 -21,4 -29,12 -8,8 -12,20 -12,38l0 97 -28 0 0 -109c0,-12 -3,-22 -7,-28 -5,-6 -12,-10 -23,-10 -8,0 -15,2 -22,6 -7,5 -12,11 -15,19 -3,8 -5,20 -5,35l0 87 -28 0z"/>
   <path class="fil3" d="M1386 447c-1,0 -2,0 -2,0 -2,-1 -3,-1 -4,-1 0,-1 -1,-1 -2,-2 0,0 0,0 0,0l0 0 -1 -1 0 0 3 -4 1 0 0 1c0,0 1,0 1,0 1,0 2,0 2,0l1 0c0,0 0,0 0,0 0,0 0,0 1,0l0 0 0 0c0,0 1,0 1,0 0,0 0,0 0,0 0,0 0,0 0,0l1 0 0 0c0,0 0,0 0,0 1,0 1,-1 1,-1 1,0 1,-1 1,-2l0 0c0,0 0,0 0,0l0 0c0,0 0,0 0,0l0 0c0,0 0,-1 0,-1 0,0 0,0 -1,0 0,-1 -2,-2 -4,-2l-1 -1c0,0 -1,0 -1,-1 -1,0 -2,-1 -3,-1 -1,-1 -2,-2 -3,-3l0 -1c0,0 0,0 0,0l0 -1c0,0 0,0 0,0l0 -1c0,0 0,0 0,0l0 -1 0 0 0 0 0 -1 0 0c0,0 0,-1 0,-1l0 0 0 0c0,-1 0,-2 0,-2 1,-1 2,-2 3,-3 0,-1 1,-1 2,-2 1,0 2,0 3,0l0 0c1,-1 1,-1 1,-1l1 0 0 0c0,0 1,0 1,0 0,0 0,0 1,0 0,0 0,0 1,0l0 1c1,0 2,0 3,1 1,0 1,0 2,1 0,0 0,0 1,0l0 0 0 1 -2 3 0 1 -1 0c0,0 0,0 0,0 -1,0 -2,-1 -2,-1 -1,0 -1,0 -2,0l-1 0 0 0c0,0 0,0 0,0 0,0 0,0 0,0l-1 0 0 0c0,0 0,0 -1,0l0 0c0,0 -1,0 -1,0 0,1 -1,1 -1,1 0,0 -1,1 -1,1 0,0 0,0 0,0l0 0c0,0 0,0 0,0l0 1 0 0 0 0c0,0 0,0 0,0 0,0 0,0 0,0l0 0c0,0 0,0 0,1l0 0c0,0 0,0 0,0 0,0 1,0 1,1 1,0 1,0 2,0 0,1 0,1 1,1l1 1c1,0 2,0 3,1 1,0 2,1 2,1 1,1 2,2 3,4l0 0c0,0 0,0 0,0 0,1 0,1 0,1 0,0 1,0 1,1l0 0 0 0 0 1 0 0c0,2 -1,3 -1,4 -1,1 -2,2 -2,3 -1,1 -2,1 -3,2 0,0 -1,0 -1,0l0 0 -1 0c0,0 -1,0 -1,0 0,1 -1,1 -1,1l-1 0 0 0z"/>
   <path class="fil3" d="M1441 421c-6,0 -8,3 -8,10 0,6 2,9 8,9l0 0c1,0 3,0 4,-1 2,-2 3,-4 3,-8 0,-4 -1,-7 -3,-9 -1,-1 -3,-1 -4,-1l0 0zm0 26c-4,0 -6,-1 -9,-3 -4,-2 -6,-7 -6,-13 0,-7 2,-11 6,-14 3,-2 5,-3 9,-3l0 0c3,0 6,1 9,4 3,3 5,7 5,13 0,5 -2,10 -5,12 -3,3 -6,4 -9,4l0 0z"/>
   <path class="fil3" d="M1497 447l-4 0 0 0 0 0c-1,0 -1,0 -2,-1 -2,0 -3,-1 -4,-3 -1,0 -1,-1 -1,-2 0,0 0,-1 0,-1l0 0 0 0 0 0 0 0 0 -1 0 0 0 -40 1 0 4 2 1 0 0 38 0 0c0,0 0,0 0,0l0 0c0,1 0,1 0,1 0,0 1,0 1,0 0,0 0,0 0,0l0 0 4 0 0 7z"/>
   <path class="fil3" d="M1539 447c-1,0 -1,0 -1,0l-1 0 0 0 0 0 0 0 0 0c0,0 0,0 0,0 -1,0 -1,0 -1,0 -1,-1 -2,-1 -2,-1 -2,0 -3,-1 -4,-2 -1,-1 -2,-3 -3,-4 0,-1 0,-2 0,-2 0,-1 0,-1 0,-1 0,-1 0,-1 0,-1l0 0 0 0 0 -21 0 -1 1 1 5 1 0 0 0 1 0 19 0 0 0 0 0 0c0,0 0,0 0,0 0,1 0,1 0,1 0,0 1,0 1,1 0,0 0,1 0,1 1,0 1,0 1,0 0,1 1,1 1,1 0,0 1,0 1,0 0,0 0,0 0,0 0,0 1,0 1,0l0 0c0,0 0,0 0,0l0 0 0 0 1 0 0 0c0,0 0,0 0,0 1,0 1,0 2,0 0,0 0,0 1,0 0,0 1,0 1,0 1,-1 1,-1 2,-2 0,0 0,0 1,0l0 -23 6 0 0 31 -6 0 0 -1c0,0 0,0 -1,0 -1,1 -2,1 -3,1 -1,1 -2,1 -2,1 0,0 -1,0 -1,0l0 0c0,0 0,0 0,0z"/>
   <path class="fil3" d="M1592 447c-1,0 -2,0 -2,0 -1,-1 -3,-1 -4,-1 0,-1 -1,-1 -2,-2 0,0 0,0 0,0l0 0 -1 -1 1 0 2 -4 1 0 0 1c1,0 1,0 2,0 0,0 1,0 2,0l0 0c0,0 0,0 1,0 0,0 0,0 0,0l0 0 0 0c1,0 1,0 1,0 0,0 0,0 0,0 0,0 0,0 1,0l0 0 0 0c0,0 0,0 0,0 1,0 1,-1 1,-1 1,0 1,-1 1,-2l0 0c0,0 0,0 0,0l0 0c0,0 0,0 0,0l0 0c0,0 0,-1 0,-1 0,0 0,0 -1,0 0,-1 -2,-2 -3,-2l-2 -1c0,0 -1,0 -1,-1 -1,0 -2,-1 -3,-1 -1,-1 -2,-2 -2,-3l0 -1c-1,0 -1,0 -1,0l0 -1c0,0 0,0 0,0l0 -1c0,0 0,0 0,0l0 -1 0 0 0 0 0 -1 0 0c0,0 0,-1 0,-1l0 0 0 0c0,-1 0,-2 1,-2 0,-1 1,-2 2,-3 1,-1 2,-1 3,-2 0,0 1,0 2,0l0 0c1,-1 1,-1 1,-1l1 0 0 0c1,0 1,0 1,0 0,0 0,0 1,0 0,0 0,0 1,0l0 1c1,0 2,0 3,1 1,0 2,0 2,1 0,0 1,0 1,0l0 0 1 1 -3 3 0 1 -1 0c0,0 0,0 0,0 -1,0 -1,-1 -2,-1 -1,0 -1,0 -2,0l0 0 -1 0c0,0 0,0 0,0 0,0 0,0 0,0l0 0 -1 0c0,0 0,0 0,0l-1 0c0,0 0,0 -1,0 0,1 0,1 -1,1 0,0 0,1 0,1 -1,0 -1,0 -1,0l0 0c0,0 0,0 0,0l0 1 0 0 0 0c0,0 0,0 0,0 0,0 0,0 0,0l0 0c0,0 0,0 0,1l0 0c0,0 1,0 1,0 0,0 0,0 0,1 1,0 1,0 2,0 0,1 1,1 1,1l1 1c1,0 2,0 3,1 1,0 2,1 3,1 1,1 2,2 2,4l0 0c0,0 0,0 1,0 0,1 0,1 0,1 0,0 0,0 0,1l0 0 0 0 0 1 0 0c0,2 0,3 -1,4 -1,1 -1,2 -2,3 -1,1 -2,1 -3,2 0,0 -1,0 -1,0l0 0 0 0c-1,0 -1,0 -2,0 0,1 -1,1 -1,1l-1 0 0 0z"/>
   <path class="fil3" d="M1633 447l7 0 0 -33 -7 0 0 33zm3 -39c-1,0 -1,0 -2,-1 -1,0 -1,-1 -1,-2l0 -1c0,-1 0,-1 1,-2 1,-1 1,-1 2,-1l1 0c1,0 2,0 2,1 1,1 1,1 1,2l0 1c0,1 0,2 -1,2 0,1 -1,1 -2,1l-1 0z"/>
   <path class="fil3" d="M1728 447c0,0 -1,0 -2,0 -1,-1 -2,-1 -3,-1 -1,-1 -1,-1 -2,-2 0,0 0,0 0,0l-1 0 0 -1 0 0 3 -4 0 0 1 1c0,0 1,0 1,0 1,0 1,0 2,0l0 0c1,0 1,0 1,0 0,0 0,0 0,0l1 0 0 0c0,0 0,0 1,0 0,0 0,0 0,0 0,0 0,0 0,0l0 0 0 0c1,0 1,0 1,0 0,0 1,-1 1,-1 1,0 1,-1 1,-2l0 0c0,0 0,0 0,0l0 0c0,0 0,0 0,0l0 0c0,0 0,-1 0,-1 0,0 -1,0 -1,0 -1,-1 -2,-2 -4,-2l-1 -1c-1,0 -1,0 -2,-1 -1,0 -2,-1 -2,-1 -1,-1 -2,-2 -3,-3l0 -1c0,0 0,0 0,0l0 -1c0,0 -1,0 -1,0l0 -1c0,0 0,0 0,0l0 -1 0 0 0 0 0 -1 0 0c0,0 0,-1 0,-1l0 0 1 0c0,-1 0,-2 0,-2 1,-1 2,-2 2,-3 1,-1 2,-1 3,-2 1,0 2,0 3,0l0 0c0,-1 1,-1 1,-1l1 0 0 0c0,0 0,0 0,0 1,0 1,0 1,0 1,0 1,0 1,0l0 1c2,0 3,0 4,1 1,0 1,0 2,1 0,0 0,0 0,0l0 0 1 1 -2 3 -1 1 0 0c0,0 0,0 -1,0 0,0 -1,-1 -1,-1 -1,0 -2,0 -2,0l-1 0 0 0c0,0 0,0 0,0 0,0 0,0 -1,0l0 0 0 0c0,0 -1,0 -1,0l0 0c0,0 -1,0 -1,0 -1,1 -1,1 -1,1 -1,0 -1,1 -1,1 0,0 0,0 0,0l0 0c0,0 0,0 0,0l0 1 0 0 0 0c0,0 0,0 0,0 0,0 0,0 0,0l0 0c0,0 0,0 0,1l0 0c0,0 0,0 0,0 0,0 0,0 1,1 0,0 1,0 1,0 1,1 1,1 2,1l1 1c1,0 2,0 2,1 1,0 2,1 3,1 1,1 2,2 3,4l0 0c0,0 0,0 0,0 0,1 0,1 0,1 0,0 0,0 0,1l0 0 0 0 0 1 1 0c0,2 -1,3 -2,4 0,1 -1,2 -2,3 0,1 -1,1 -2,2 -1,0 -1,0 -2,0l0 0 0 0c0,0 -1,0 -1,0 -1,1 -1,1 -1,1l-1 0 -1 0z"/>
   <path class="fil3" d="M1776 429c0,0 0,0 0,0 0,0 0,0 1,0 0,0 0,0 0,0 0,0 0,0 1,0l0 0c0,0 1,0 1,0 0,0 0,0 0,0 1,0 1,0 1,0l1 0c1,-1 2,-1 3,-1l2 0c1,0 2,0 3,0 0,0 0,0 1,0 0,0 0,-1 1,-1 0,0 0,0 0,-1 -1,-1 -1,-2 -2,-3 0,0 -1,0 -1,-1 0,0 -1,0 -1,-1 -1,0 -1,0 -2,0 0,0 0,0 0,0 0,0 -1,0 -1,0l-1 0 0 0c0,0 -1,0 -2,0 0,0 -1,0 -1,1 -1,0 -1,0 -1,0 -1,1 -1,1 -2,1 0,1 -1,2 -1,4 0,0 0,1 0,1l0 1c0,0 0,0 0,0zm8 18c0,0 0,0 0,0l-1 0 0 0 0 0c0,0 -1,0 -1,0 0,0 0,0 -1,0 0,0 0,-1 -1,-1l0 0c0,0 -1,0 -1,0l0 0c0,0 -1,0 -1,0 0,0 -1,0 -1,0l0 0 0 0c0,-1 -1,-1 -1,-1 0,0 -1,-1 -1,-1l0 0 -1 -1c0,0 0,0 0,0l-1 0c0,0 0,0 0,-1l0 0c0,0 -1,0 -1,0 0,-1 0,-1 -1,-2l0 0c0,0 0,0 0,0l0 -1c-1,-1 -1,-1 -1,-1 0,-1 0,-1 0,-2 -1,-1 -1,-2 -1,-3 0,0 0,-1 0,-1 0,0 0,-1 0,-1l0 0 0 0 0 -1 0 0c0,0 0,0 0,-1 0,0 0,-1 0,-1 0,-1 0,-2 1,-3 0,-2 1,-4 2,-6 1,0 2,-1 3,-2 0,-1 1,-1 2,-2 1,0 2,0 3,0 1,-1 2,-1 3,-1l0 0 1 0 1 0c0,0 0,0 0,0 1,0 1,1 1,1 1,0 2,0 3,0 1,1 2,1 3,2 1,1 2,2 2,2 2,2 2,4 3,6 0,1 0,2 0,3 0,0 0,1 0,1 0,1 0,1 0,1l0 0 0 1 0 3 -3 0c0,0 0,0 -1,0 0,0 0,0 0,0 0,0 0,0 -1,0 0,0 0,0 0,0l0 0c-1,0 -1,0 -1,0 -1,0 -1,0 -2,0 0,0 -1,0 -2,0l-3 1c-1,0 -1,0 -2,0l-2 0c0,0 0,0 -1,0 0,0 0,0 0,0 0,0 0,0 -1,0l-1 0c0,0 0,0 0,0 -1,0 -1,0 -1,0l0 0c0,0 0,0 0,0 0,1 0,1 1,1l0 1c0,0 0,0 0,0 0,0 0,0 0,0 0,0 0,1 0,1l0 0c1,0 1,0 1,0 0,0 0,0 0,0 0,0 0,0 0,0 0,0 0,0 0,1 0,0 0,0 0,0l1 0 0 0c0,0 0,0 0,0l0 0 0 0c0,0 0,1 1,1 0,0 0,0 0,0 0,0 0,0 0,0 0,0 0,0 1,0l0 0 1 0c0,0 0,0 0,0 0,0 0,0 0,0 1,0 1,0 1,0 0,0 0,0 0,0l1 0 0 0c0,0 0,0 0,0 0,0 0,0 1,0l0 0c0,0 0,0 1,0 0,0 1,0 1,0l1 0c0,0 0,0 0,0 0,0 0,0 0,0 0,0 1,0 1,0 0,0 0,0 0,0 0,0 0,0 0,0l1 0c0,-1 0,-1 0,-1 0,0 0,0 0,0 0,0 1,0 1,0 0,0 0,0 0,0l0 0c0,0 0,0 0,0l1 0c0,0 0,0 0,0l0 0 1 -1 3 4 -1 1 0 0c0,1 -1,1 -1,1l0 0c-1,0 -1,0 -1,0 0,1 0,1 0,1l0 0c-1,0 -1,0 -1,0l-1 0c0,0 0,0 0,1l0 0c-1,0 -1,0 -1,0l0 0c-1,0 -1,0 -1,0l-1 0c0,0 -1,0 -1,1 -1,0 -1,0 -1,0l0 0c0,0 -1,0 -1,0l0 0 0 0c0,0 -1,0 -1,0l0 0z"/>
   <path class="fil3" d="M1855 447l-6 0 0 -1 0 -2c0,-2 0,-4 0,-6l0 -6 0 -2 0 -2 0 0 0 -1 0 0c0,0 0,-1 0,-1 0,0 0,0 0,0 0,0 -1,0 -1,0l0 -1 0 0c0,0 0,0 0,-1 0,0 0,0 0,0 0,0 0,0 0,0l0 0 0 0 0 -1 -1 0c0,0 0,-1 -1,-1 0,0 0,0 0,0 0,-1 0,-1 0,-1l0 0 0 0 -1 0 0 0c0,0 -1,-1 -1,-1 -1,0 -1,0 -1,0 0,0 0,0 0,0l-1 0 0 0 0 0 -1 0 0 0c0,0 0,0 0,0l0 0c0,0 0,0 0,0 0,0 -1,0 -1,0 0,0 0,0 0,0 0,0 0,0 0,0l-1 0c0,1 0,1 0,1l0 0 0 0c-1,0 -2,1 -2,1 -1,1 -2,1 -2,2 0,0 0,0 0,1l0 22 -7 0 0 -46 1 0 5 2 1 0 0 13c0,0 1,0 2,-1 0,0 0,0 0,0l1 0c0,0 0,0 1,0l0 -1c0,0 1,0 1,0l0 0 1 0 0 0 0 0 0 0 0 0 1 0 0 0 0 0 0 0 0 0 0 0 1 0 0 0c1,0 1,0 2,0l0 0 0 0 0 0c1,1 2,1 3,1 2,1 3,2 5,4 1,2 2,4 2,6 0,1 0,1 0,1l0 1 0 0 0 0 0 1 0 2 0 4 0 4c0,2 0,4 0,6l0 2 0 1z"/>
   <path class="fil3" d="M1893 439c0,0 1,0 1,0 0,0 0,0 0,0l0 0c1,0 1,1 2,1 1,0 2,0 3,0 1,0 2,0 3,0 1,-1 1,-1 2,-1 0,0 0,0 0,0l0 -8c-1,0 -2,1 -3,1 0,0 -1,0 -2,0 -1,0 -1,0 -2,0l0 0 -1 0c0,0 0,0 0,0 0,0 0,0 0,0 -1,1 -1,1 -2,1 -1,0 -1,1 -1,1 -1,1 -1,1 -1,2l0 0c0,0 0,0 0,0 0,0 0,0 0,1 0,0 0,0 0,0 0,0 0,0 1,1 0,0 0,0 0,0l0 0 0 0c0,0 0,0 0,1 0,0 0,0 0,0zm6 8c-2,0 -3,0 -4,-1 -2,0 -3,0 -5,-1 -1,-1 -3,-3 -3,-4 -1,-1 -1,-2 -1,-3 0,0 0,0 0,-1l0 0c0,0 0,0 0,0l-1 -1 0 0 1 -1c0,-2 0,-3 1,-5 1,-1 3,-2 4,-3 1,0 2,-1 4,-1l1 0c0,0 0,0 0,0l1 0c0,0 1,0 1,0 1,0 2,0 2,-1 2,0 3,0 4,0 0,0 0,0 0,-1l0 0c0,0 0,0 0,0 0,0 0,0 0,0l0 0 0 0c0,0 0,-1 0,-1 -1,0 -1,-1 -2,-1 0,0 0,0 -1,0l0 -1c0,0 0,0 0,0 0,0 0,0 0,0 0,0 0,0 0,0l-1 0 0 0c0,0 0,0 0,0 -1,0 -1,0 -1,0 0,0 0,0 0,0 0,0 0,0 0,0 0,0 -1,0 -1,0l0 0c0,0 0,0 0,0 -1,0 -1,0 -2,0l0 0c0,0 0,0 -1,0l0 0 0 0c0,0 -1,0 -1,0 0,0 0,0 0,0l0 0c0,1 -1,1 -1,1l0 0c0,0 -1,0 -1,1l-2 0 -4 -3 1 -1c0,0 1,0 1,-1 0,0 1,-1 2,-2 1,0 1,0 1,0l0 0c1,0 1,-1 1,-1l1 0 0 0 1 0 0 0c0,0 1,0 2,-1 0,0 1,0 2,0 0,0 0,0 1,0 0,0 0,0 0,0 1,0 1,0 1,0 0,0 0,0 0,1l1 0c0,0 0,0 0,0l1 0 0 0 1 0c0,0 0,0 0,0l0 0c1,0 1,1 1,1 1,0 1,0 2,1 1,0 1,1 2,1 0,1 1,1 1,2 1,1 1,2 1,3 0,0 0,0 0,1l0 0c0,0 0,0 0,0l0 1 0 0 0 14 0 0c0,1 0,1 0,1 0,1 0,1 0,2 -1,1 -2,2 -3,3 -1,0 -1,0 -2,1 -2,0 -3,1 -5,1 -1,0 -1,0 -1,0z"/>
   <path class="fil3" d="M1955 447c-1,0 -2,0 -3,-1 0,0 -1,0 -2,0 0,-1 -1,-1 -1,-2 -1,-1 -1,-1 -2,-2 0,0 0,-1 0,-1 0,0 0,-1 0,-1l0 -1 0 0 0 0 0 0 0 -1 0 0 0 0 0 -20 -4 0 -1 0 0 -7 1 0 4 1 0 -11 1 0 5 2 0 0 0 9 6 0 1 0 0 6 -1 0 -6 0 0 20 0 1 0 0 0 0c0,0 0,0 0,0l0 0 0 0 0 0c0,0 0,0 0,1 0,0 1,0 1,0 0,0 0,0 0,0 0,0 1,0 1,1l2 0 1 0 0 5 -1 0 -2 1 0 0 0 0z"/>
   <path class="fil3" d="M2059 440c1,0 1,0 2,0l0 -11c0,-3 -1,-6 -4,-8 -1,0 -2,-1 -4,-1l0 0c-2,0 -4,1 -5,2 -2,1 -2,4 -2,7 0,5 1,8 2,10 2,1 3,1 5,1 1,0 2,0 3,0 1,0 2,0 3,0zm2 7l0 -1c-1,0 -1,0 -2,0 -1,0 -2,0 -3,1l0 0c-1,0 -2,0 -3,0 -4,0 -8,-2 -10,-5 -3,-3 -4,-7 -4,-13 0,-5 1,-9 4,-12 3,-2 6,-3 10,-3l0 0c3,0 5,0 8,2l0 -13 6 -2 0 46 -6 0z"/>
   <path class="fil3" d="M2105 439c0,0 0,0 0,0 0,0 0,0 0,0l0 0c1,0 2,1 3,1 1,0 1,0 2,0 2,0 3,0 4,0 0,-1 1,-1 1,-1 0,0 0,0 0,0l0 -8c0,0 -1,1 -2,1 -1,0 -2,0 -3,0 0,0 -1,0 -1,0l0 0 -1 0c0,0 0,0 0,0 0,0 0,0 0,0 -1,1 -2,1 -2,1 -1,0 -1,1 -2,1 0,1 0,1 0,2l0 0c0,0 0,0 0,0 0,0 0,0 0,1 0,0 0,0 0,0 0,0 0,0 0,1 0,0 0,0 1,0l0 0 0 0c0,0 0,0 0,1 0,0 0,0 0,0zm5 8c-1,0 -2,0 -3,-1 -2,0 -4,0 -5,-1 -2,-1 -3,-3 -4,-4 0,-1 -1,-2 -1,-3 0,0 0,0 0,-1l0 0c0,0 0,0 0,0l0 -1 0 0 0 -1c0,-2 1,-3 2,-5 1,-1 2,-2 4,-3 1,0 2,-1 3,-1l1 0c0,0 0,0 1,0l0 0c1,0 1,0 2,0 0,0 1,0 2,-1 1,0 2,0 3,0 0,0 0,0 0,-1l0 0c0,0 0,0 0,0 0,0 0,0 0,0l0 0 0 0c0,0 0,-1 0,-1 0,0 -1,-1 -1,-1 0,0 -1,0 -1,0l0 -1c0,0 0,0 0,0 0,0 0,0 -1,0 0,0 0,0 0,0l0 0 -1 0c0,0 0,0 0,0 0,0 0,0 0,0 0,0 0,0 0,0 -1,0 -1,0 -1,0 0,0 0,0 0,0l0 0c0,0 -1,0 -1,0 0,0 -1,0 -1,0l0 0c-1,0 -1,0 -1,0l0 0 -1 0c0,0 0,0 0,0 0,0 0,0 -1,0l0 0c0,1 0,1 0,1l0 0c-1,0 -1,0 -2,1l-1 0 -4 -3 1 -1c0,0 0,0 0,-1 1,0 2,-1 3,-2 0,0 0,0 1,0l0 0c0,0 0,-1 1,-1l0 0 1 0 0 0 1 0c0,0 0,0 1,-1 1,0 2,0 2,0 1,0 1,0 1,0 0,0 1,0 1,0 0,0 0,0 0,0 1,0 1,0 1,1l0 0c0,0 1,0 1,0l1 0 0 0 0 0c0,0 1,0 1,0l0 0c0,0 0,1 1,1 0,0 1,0 1,1 1,0 2,1 2,1 1,1 1,1 2,2 0,1 1,2 1,3 0,0 0,0 0,1l0 0c0,0 0,0 0,0l0 1 0 0 0 14 0 0c0,1 0,1 0,1 0,1 0,1 -1,2 0,1 -1,2 -2,3 -1,0 -2,0 -3,1 -1,0 -3,1 -5,1 0,0 0,0 -1,0z"/>
   <path class="fil3" d="M2172 447l0 -21 0 0 0 -1 0 0 0 0c0,0 0,-1 0,-1 0,0 -1,0 -1,-1 0,0 0,0 0,-1 -1,0 -1,0 -1,0 0,0 -1,-1 -1,-1 0,0 -1,0 -1,0 0,0 0,0 0,0 0,0 -1,0 -1,0l0 0 0 0 -1 0c0,0 0,0 0,0 0,0 0,0 0,0 -1,0 -1,0 -2,0 0,0 0,0 -1,0 0,0 -1,0 -1,1 -1,0 -1,0 -2,1 0,0 0,0 -1,0l0 24 -6 0 0 -32 6 0 0 1c0,0 0,0 0,0 2,-1 3,-1 4,-1 1,0 2,-1 2,-1 0,0 1,0 1,0l0 0c0,0 0,0 0,0 1,0 1,0 1,0l1 0 0 0c0,0 0,0 0,0 1,0 1,0 1,1 1,0 2,0 2,0 2,1 3,1 4,2 1,1 2,3 3,4 0,1 0,2 0,2 0,1 0,1 0,2 0,0 0,0 0,0l0 1 0 0 0 21 -6 0z"/>
   <path class="fil3" d="M2272 421c-2,0 -4,0 -5,1 -2,1 -3,4 -3,8 0,4 1,7 3,9 1,1 3,2 6,2 0,0 1,0 2,0l0 0 0 0c1,0 2,0 3,0 1,0 1,0 2,0l0 -11c0,-4 -1,-6 -4,-8 -1,-1 -2,-1 -4,-1l0 0zm1 42c-3,0 -6,0 -8,-2 -2,-1 -4,-3 -4,-6l-1 -1 1 0 5 -1 1 0 0 0c0,1 1,2 2,3 1,1 2,1 4,1l1 0c2,0 3,-1 4,-1 1,-1 2,-2 2,-4l0 -5c-1,0 -1,0 -2,0 0,0 -1,0 -3,0l0 0c-1,0 -2,0 -2,0 -5,0 -9,-1 -12,-4 -2,-3 -4,-7 -4,-13 0,-5 2,-9 4,-11 3,-3 6,-5 11,-5l0 0c4,0 7,1 9,4 4,2 5,7 5,12l0 22c0,3 -1,6 -3,8 -3,2 -6,3 -9,3l-1 0z"/>
   <path class="fil3" d="M2325 439c0,0 0,0 0,0 0,0 0,0 0,0l0 0c1,0 2,1 3,1 1,0 1,0 2,0 2,0 3,0 4,0 1,-1 1,-1 1,-1 0,0 0,0 1,0l0 -8c-1,0 -2,1 -3,1 -1,0 -2,0 -3,0 0,0 -1,0 -1,0l0 0 -1 0c0,0 0,0 0,0 0,0 0,0 0,0 -1,1 -2,1 -2,1 -1,0 -1,1 -2,1 0,1 0,1 0,2l0 0c0,0 0,0 0,0 0,0 0,0 0,1 0,0 0,0 0,0 0,0 0,0 0,1 0,0 0,0 1,0l0 0 0 0c0,0 0,0 0,1 0,0 0,0 0,0zm5 8c-1,0 -2,0 -3,-1 -2,0 -4,0 -5,-1 -2,-1 -3,-3 -4,-4 0,-1 0,-2 -1,-3 0,0 0,0 0,-1l0 0c0,0 0,0 0,0l0 -1 0 0 0 -1c0,-2 1,-3 2,-5 1,-1 2,-2 4,-3 1,0 2,-1 4,-1l0 0c0,0 0,0 1,0l0 0c1,0 1,0 2,0 0,0 1,0 2,-1 1,0 2,0 3,0 0,0 0,0 1,-1l0 0c0,0 0,0 -1,0 0,0 0,0 0,0l0 0 0 0c0,0 0,-1 0,-1 0,0 0,-1 -1,-1 0,0 -1,0 -1,0l0 -1c0,0 0,0 0,0 0,0 0,0 0,0 0,0 -1,0 -1,0l0 0 -1 0c0,0 0,0 0,0 0,0 0,0 0,0 0,0 0,0 0,0 -1,0 -1,0 -1,0 0,0 0,0 0,0l0 0c0,0 -1,0 -1,0 0,0 -1,0 -1,0l0 0c-1,0 -1,0 -1,0l0 0 -1 0c0,0 0,0 0,0 0,0 0,0 0,0l-1 0c0,1 0,1 0,1l0 0c-1,0 -1,0 -2,1l-1 0 -4 -3 1 -1c0,0 0,0 0,-1 1,0 2,-1 3,-2 0,0 0,0 1,0l0 0c0,0 1,-1 1,-1l0 0 1 0 0 0 1 0c0,0 0,0 1,-1 1,0 2,0 2,0 1,0 1,0 1,0 0,0 1,0 1,0 0,0 0,0 0,0 1,0 1,0 1,1l0 0c0,0 1,0 1,0l1 0 0 0 0 0c1,0 1,0 1,0l0 0c0,0 0,1 1,1 0,0 1,0 1,1 1,0 2,1 2,1 1,1 2,1 2,2 0,1 1,2 1,3 0,0 0,0 0,1l0 0c0,0 0,0 0,0l0 1 0 0 0 14 0 0c0,1 0,1 0,1 0,1 0,1 -1,2 0,1 -1,2 -2,3 -1,0 -2,0 -3,1 -1,0 -3,1 -4,1 -1,0 -1,0 -2,0z"/>
   <path class="fil3" d="M2379 463c-1,0 -2,0 -3,0l-1 0 1 -7 1 0c0,1 1,1 2,1 0,0 1,0 2,-1 1,-1 2,-4 4,-9 -5,-10 -10,-21 -13,-32l-1 -1 8 0 0 1c2,7 6,15 9,23 3,-7 6,-15 9,-23l0 -1 8 0 -1 2c-11,29 -17,44 -18,45 -1,2 -4,2 -7,2z"/>
   <path class="fil3" d="M2441 439c0,0 0,0 0,0 0,0 0,0 0,0l0 0c1,0 2,1 3,1 1,0 1,0 2,0 1,0 3,0 4,0 0,-1 1,-1 1,-1 0,0 0,0 0,0l0 -8c0,0 -1,1 -2,1 -1,0 -2,0 -3,0 -1,0 -1,0 -2,0l0 0 0 0c0,0 0,0 0,0 0,0 0,0 -1,0 0,1 -1,1 -2,1 0,0 -1,1 -1,1 0,1 -1,1 -1,2l0 0c0,0 0,0 0,0 0,0 0,0 0,1 0,0 1,0 1,0 0,0 0,0 0,1 0,0 0,0 0,0l0 0 0 0c0,0 1,0 1,1 0,0 0,0 0,0zm5 8c-1,0 -2,0 -3,-1 -2,0 -4,0 -5,-1 -2,-1 -3,-3 -4,-4 0,-1 -1,-2 -1,-3 0,0 0,0 0,-1l0 0c0,0 0,0 0,0l0 -1 0 0 0 -1c0,-2 1,-3 2,-5 1,-1 2,-2 3,-3 2,0 3,-1 4,-1l1 0c0,0 0,0 0,0l1 0c1,0 1,0 1,0 1,0 2,0 3,-1 1,0 2,0 3,0 0,0 0,0 0,-1l0 0c0,0 0,0 0,0 0,0 0,0 0,0l0 0 0 0c0,0 0,-1 0,-1 0,0 -1,-1 -1,-1 -1,0 -1,0 -1,0l0 -1c0,0 0,0 -1,0 0,0 0,0 0,0 0,0 0,0 0,0l0 0 -1 0c0,0 0,0 0,0 0,0 0,0 0,0 0,0 0,0 -1,0 0,0 0,0 0,0 0,0 0,0 0,0l0 0c-1,0 -1,0 -1,0 0,0 -1,0 -1,0l0 0c-1,0 -1,0 -1,0l0 0 -1 0c0,0 0,0 0,0 0,0 -1,0 -1,0l0 0c0,1 0,1 0,1l0 0c-1,0 -2,0 -2,1l-1 0 -4 -3 1 -1c0,0 0,0 0,-1 1,0 2,-1 3,-2 0,0 0,0 1,0l0 0c0,0 0,-1 1,-1l0 0 1 0 0 0 0 0c1,0 1,0 2,-1 1,0 1,0 2,0 0,0 1,0 1,0 0,0 0,0 1,0 0,0 0,0 0,0 0,0 1,0 1,1l0 0c0,0 1,0 1,0l0 0 1 0 0 0c0,0 0,0 1,0l0 0c0,0 0,1 0,1 1,0 2,0 2,1 1,0 2,1 2,1 1,1 1,1 2,2 0,1 0,2 1,3 0,0 0,0 0,1l0 0c0,0 0,0 0,0l0 1 0 0 0 14 0 0c0,1 0,1 0,1 0,1 -1,1 -1,2 0,1 -1,2 -2,3 -1,0 -2,0 -3,1 -1,0 -3,1 -5,1 0,0 -1,0 -1,0z"/>
   <path class="fil3" d="M2565 447l-6 0 0 -1 0 -2c0,-2 0,-4 0,-6l0 -6 0 -2 0 -2 0 0 0 -1 0 0c0,0 0,-1 0,-1 0,0 0,0 0,0 0,0 0,0 0,0l0 -1 0 0c-1,0 -1,0 -1,-1 0,0 0,0 0,0 0,0 0,0 0,0l0 0 0 0 0 -1 0 0c-1,0 -1,-1 -1,-1 0,0 -1,0 -1,0 0,-1 0,-1 0,-1l0 0 0 0 0 0 -1 0c0,0 -1,-1 -1,-1 0,0 0,0 0,0 -1,0 -1,0 -1,0l0 0 -1 0 0 0 0 0 -1 0c0,0 0,0 0,0l0 0c0,0 0,0 0,0 0,0 0,0 0,0 0,0 0,0 -1,0 0,0 0,0 0,0l0 0c-1,1 -1,1 -1,1l0 0 0 0c-1,0 -1,1 -2,1 -1,1 -1,1 -2,2 0,0 0,0 0,1l0 22 -7 0 0 -46 2 0 4 2 1 0 0 13c1,0 1,0 2,-1 0,0 0,0 1,0l0 0c0,0 1,0 1,0l0 -1c1,0 1,0 1,0l1 0 0 0 0 0 0 0 0 0 1 0 0 0 0 0 0 0 0 0 0 0 0 0 1 0 1 0c0,0 0,0 1,0l0 0 0 0 0 0c1,1 2,1 3,1 2,1 4,2 5,4 1,2 2,4 2,6 0,1 0,1 0,1l0 1 0 0 0 0 0 1 0 2 0 4 0 4c0,2 0,4 0,6l0 2 0 1z"/>
   <path class="fil3" d="M2597 447l6 0 0 -33 -6 0 0 33zm3 -39c-1,0 -2,0 -3,-1 0,0 0,-1 0,-2l0 -1c0,-1 0,-1 0,-2 1,-1 2,-1 3,-1l1 0c0,0 1,0 2,1 0,1 1,1 1,2l0 1c0,1 -1,2 -1,2 -1,1 -2,1 -2,1l-1 0z"/>
   <path class="fil3" d="M2655 440c1,0 1,0 2,0l0 -11c0,-3 -1,-6 -4,-8 -1,0 -2,-1 -4,-1l0 0c-2,0 -4,1 -5,2 -2,1 -2,4 -2,7 0,5 0,8 2,10 2,1 3,1 5,1 1,0 2,0 3,0 1,0 2,0 3,0zm2 7l0 -1c-1,0 -1,0 -2,0 -1,0 -2,0 -3,1l0 0c-1,0 -2,0 -3,0 -4,0 -8,-2 -10,-5 -3,-3 -4,-7 -4,-13 0,-5 1,-9 4,-12 3,-2 6,-3 10,-3l0 0c3,0 5,0 8,2l0 -13 6 -2 0 46 -6 0z"/>
   <path class="fil3" d="M2706 447c0,0 -1,0 -1,0l0 0 -1 0 0 0 0 0 0 0c0,0 0,0 0,0 -1,0 -1,0 -1,0 -1,-1 -1,-1 -2,-1 -2,0 -3,-1 -4,-2 -1,-1 -2,-3 -3,-4 0,-1 0,-2 0,-2 0,-1 0,-1 0,-1 0,-1 0,-1 0,-1l0 0 0 0 0 -21 0 -1 1 1 5 1 1 0 0 1 0 19 0 0 0 0 0 0c0,0 0,0 0,0 0,1 0,1 0,1 0,0 0,0 0,1 0,0 0,1 1,1 0,0 0,0 0,0 0,1 1,1 1,1 0,0 1,0 1,0 0,0 0,0 1,0 0,0 0,0 0,0l0 0c0,0 0,0 0,0l0 0 0 0 1 0 0 0c0,0 0,0 1,0 0,0 0,0 1,0 0,0 1,0 1,0 0,0 1,0 1,0 1,-1 1,-1 2,-2 0,0 1,0 1,0l0 -23 6 0 0 31 -6 0 0 -1c0,0 0,0 0,0 -1,1 -3,1 -4,1 -1,1 -1,1 -2,1 0,0 0,0 -1,0l0 0c0,0 0,0 0,0z"/>
   <path class="fil3" d="M2760 441c0,0 1,0 3,0l0 0c1,0 1,0 2,0 3,0 5,-1 6,-2 2,-2 3,-5 3,-9 0,-6 -3,-9 -8,-9l-1 0c-1,0 -3,0 -4,1 -2,2 -3,4 -3,8l0 11c0,0 1,0 2,0zm-9 22l0 -33c0,-5 2,-10 5,-12 3,-3 6,-4 9,-4l1 0c4,0 8,2 10,5 3,2 4,6 4,11 0,6 -1,10 -4,13 -2,3 -6,4 -11,4 -1,0 -1,0 -3,0l0 0c-1,0 -2,0 -2,0 -1,0 -2,0 -2,0l0 15 -1 0 -5 1 -1 0z"/>
  </g>
 </g>
</svg>
